<svg width="20" height="20" fill="none" xmlns="http://www.w3.org/2000/svg"><path d="M9.603 4.323c-.176-.441-.449-.987-.651-1.422-.204-.436.193-.92.533-.91.528.02 1.255.026 1.784.012.337-.01.677.481.483.91-.2.441-.441.93-.619 1.372-.48 0-1.53.038-1.53.038z" fill="url(#paint0_linear_4_26)"/><path d="M9.256 5.513c-.254.016.224-1.07.224-1.07l1.754.018s.587.987.31 1.065c-.276.077-2.035-.029-2.288-.013z" fill="url(#paint1_linear_4_26)"/><path d="M15.912 15.763c-.12.25-.194.608-.742 1.145-.548.536-1.23.89-1.452 1-.525.262-1.77.663-2.626.69-1.306.06-2.75-.17-2.75-.17-.761-.185-2.234-1.037-2.481-1.257-.119-.129-1.147-.876-1.47-2.925-.024-.394.114-2.193.236-2.684.103-.693.682-2.019 1.111-2.62.627-1.221 2.308-3.439 4.63-3.507 2.324-.068 4.55 2.891 4.784 3.774.406.632 1.184 2.488 1.16 3.695.09 1.216-.073 2.17-.4 2.859z" fill="url(#paint2_linear_4_26)"/><path fill-rule="evenodd" clip-rule="evenodd" d="M11.447 1.8c.26.116.474.28.548.586.056.236.021.46-.07.682-.183.446-.357.897-.54 1.362.274.274.365.629.351 1.026 0 .04.048.104.088.122a6.025 6.025 0 011.692 1.11c.793.659 2.286 3.053 2.517 4.092.187.544.63 2.293.483 3.132-.012.648-.325 2.295-.925 2.818-.097.156-1.554 1.426-2.143 1.51-.55.247-1.79.543-3.08.574-1.312.032-2.65-.355-3.313-.67-.323-.15-1.314-.755-1.672-1.209-.546-.583-.873-1.287-1.05-2.076-.334-.947.037-3.089.287-3.8.054-.762 1.198-2.917 1.771-3.474a7.02 7.02 0 011.401-1.376c.339-.243.721-.423 1.094-.611.1-.051.12-.097.116-.193-.015-.374.084-.708.35-.973-.197-.493-.403-.975-.582-1.469-.167-.459-.001-.974.486-1.132.013-.004.022-.02.032-.031h2.159zm4.745 11.771c-.015-.224-.028-.447-.047-.672a8.295 8.295 0 00-.345-1.71 11.055 11.055 0 00-.819-1.975 9.4 9.4 0 00-1.44-2.017 5.626 5.626 0 00-.72-.626c-.82-.624-1.716-.992-2.756-.896-.674.061-1.279.303-1.844.672-.624.408-1.143.938-1.605 1.536-.392.509-.73 1.05-1.02 1.627a9.919 9.919 0 00-1.03 3.546c-.038.39.002.792.025 1.186.03.525.161 1.03.407 1.484.161.299.39.56.597.83.106.138.237.256.356.385.082.088.15.195.243.267.63.48 1.33.796 2.093.982a9.65 9.65 0 001.98.248c.262.008.526-.01.787-.032.306-.027.613-.054.915-.11.57-.107 1.13-.262 1.656-.523.223-.111.439-.243.64-.392.207-.151.39-.333.585-.5.156-.134.34-.243.462-.404.164-.218.296-.468.415-.719.33-.684.478-1.416.465-2.187zM9.65 4.237h1.435c.177-.442.343-.902.544-1.344.195-.428-.127-.775-.465-.765-.528.016-1.058.017-1.587-.001-.34-.011-.67.337-.467.774.204.435.363.892.54 1.336zm1.726 1.192c.085-.522-.262-.91-.77-.88-.174.01-.349.006-.524.002-.495-.015-.82.414-.714.877a4.19 4.19 0 012.008.001z" fill="#483A15"/><path fill-rule="evenodd" clip-rule="evenodd" d="M10.37 16.122c-1.881-.012-3.46-1.649-3.426-3.611.033-1.888 1.573-3.482 3.432-3.48 1.907.003 3.428 1.672 3.426 3.547-.002 1.884-1.53 3.534-3.432 3.544zm3.019-3.538c-.005-1.71-1.256-3.073-2.925-3.121-1.72-.05-3.022 1.282-3.1 2.94-.087 1.853 1.258 3.231 2.903 3.286 1.72.056 3.103-1.296 3.122-3.105z" fill="#000"/><path fill-rule="evenodd" clip-rule="evenodd" d="M9.735 13.067v.405h2.034v.432H9.735v.721h-.42v-.716h-.473v-.432h.467v-.417H8.84v-.423h.468V10.67c.034-.002.058-.004.081-.004.533 0 1.066.005 1.598-.001.541-.007 1.053.463 1.147.999.118.67-.386 1.275-.935 1.37-.217.038-.443.023-.665.026-.243.003-.485 0-.728 0l-.072.007zm.002-.437c.016.002.024.005.031.005.42.001.84.007 1.26-.001a.681.681 0 00.52-.235c.16-.187.21-.407.182-.653-.04-.355-.308-.633-.655-.643-.426-.01-.854-.005-1.281-.01-.06 0-.061.031-.061.078v1.387c0 .022.002.045.004.072z" fill="#026200"/><path d="M13.28 14.926c.226.101.427.191.648.292l1.273-3.76c-1.06.427-2.11.847-3.187 1.278l3.256-7.291c.644.13 1.283.26 1.936.394L13.84 11.13l.013.018c1.118-.46 2.236-.922 3.384-1.396-.867 1.946-1.724 3.863-2.584 5.794l.637.292-2.085 2.33.077-3.243z" fill="url(#paint3_linear_4_26)"/><defs><linearGradient id="paint0_linear_4_26" x1="9.352" y1="2.124" x2="9.533" y2="4.015" gradientUnits="userSpaceOnUse"><stop stop-color="#96D8A1"/><stop offset="1" stop-color="#BAB377"/></linearGradient><linearGradient id="paint1_linear_4_26" x1="9.563" y1="4.505" x2="9.612" y2="5.413" gradientUnits="userSpaceOnUse"><stop stop-color="#96D8A1"/><stop offset="1" stop-color="#BAB377"/></linearGradient><linearGradient id="paint2_linear_4_26" x1="6.258" y1="6.181" x2="7.651" y2="16.78" gradientUnits="userSpaceOnUse"><stop stop-color="#96D8A1"/><stop offset="1" stop-color="#BAB377"/></linearGradient><linearGradient id="paint3_linear_4_26" x1="16" y1="7.5" x2="13.216" y2="18.172" gradientUnits="userSpaceOnUse"><stop offset=".036" stop-color="#F90404"/><stop offset=".943" stop-color="#A00505"/></linearGradient></defs></svg>