<svg width="12" height="16" fill="none" xmlns="http://www.w3.org/2000/svg"><g clip-path="url(#clip0_28_13)"><path fill-rule="evenodd" clip-rule="evenodd" d="M2.46 3.679c-.21-.01-.402-.012-.594-.03-.8-.076-1.26-.382-1.34-1.189a8.08 8.08 0 00-.093-.697c-.01-.055-.097-.1-.17-.169.08-.275.17-.574.259-.872.119-.412.48-.605.88-.71.177-.045.41.043.61.096.611.165 1.243.236 1.865.352 1.159.214 2.314.094 3.468.134.501.018.988-.068 1.456-.233.085-.03.178-.046.267-.066.33-.073.662-.15.995-.217.327-.065.598.05.824.254.46.416.686.93.736 1.512.075.847-.096 1.67-.316 2.486-.156.58-.396 1.142-.517 1.726-.091.443-.331.83-.448 1.258-.283 1.023-.594 2.043-.842 3.072-.146.6-.196 1.22-.283 1.831-.016.118-.002.24-.002.385.436-.082.854-.15 1.264-.24.31-.066.587-.062.854.13.462.334.573.808.64 1.293.068.513.014 1.016-.24 1.493-.352.662-1.046.885-1.791.602-.333-.126-.703-.178-1.052-.272-.672-.181-1.32-.449-2.04-.462-.512-.009-1.025-.015-1.536-.052a10.082 10.082 0 00-2.259.112 4.438 4.438 0 01-2.083-.186c-.253-.083-.473-.235-.584-.477-.244-.53-.4-1.058-.387-1.654.03-1.504.428-2.936.896-4.361a4.48 4.48 0 00.164-.616c.11-.667.407-1.279.656-1.908.232-.59.39-1.203.581-1.807.05-.166.103-.332.162-.518zM9.564.332c-.099.015-.173.02-.244.036-.333.079-.658.2-.997.236C7.6.68 6.87.746 6.144.748c-.7.003-1.407-.043-2.1-.135-.746-.1-1.483-.264-2.218-.43C1.515.115 1.248.124 1 .31.578.628.522 1.08.408 1.547l.951.064a1.106 1.106 0 00-.004.082H.517c.095.44.158.843.28 1.229.046.146.21.284.356.377.497.314 1.085.232 1.634.226.498-.006.993-.132 1.494-.185.943-.1 1.885-.198 2.83-.266.305-.023.616.07.925.074.377.004.735.053 1.072.21.069.032.153.037.234.054-.299-1.055-.361-2.065.222-3.079zM9.32 2.5c.02.171.024.277.046.38.02.097.055.193.093.285.138.337.366.39.7.191.512-.301.629-1.243.257-1.746-.113-.154-.387-.123-.47.057-.049.104-.045.229-.067.36.123.005.218-.012.283.019.068.034.16.125.15.175-.03.143-.104.278-.142.369l-.85-.09zm-.004-.107h.414c.014-.295.028-.578.044-.87-.085-.006-.19-.034-.28-.014-.07.015-.164.091-.168.144-.02.24-.01.482-.01.74z" fill="#402600"/><path fill-rule="evenodd" clip-rule="evenodd" d="M9.942 13.999h1.144c-.032.168-.054.345-.103.514-.05.175-.183.284-.391.302-.25.02-.434-.088-.525-.281-.075-.156-.083-.336-.125-.535z" fill="url(#paint0_linear_28_13)"/><path fill-rule="evenodd" clip-rule="evenodd" d="M9.316 2.393c0-.258-.01-.5.008-.74.004-.053.1-.127.167-.144.091-.02.196.008.281.014-.014.294-.028.576-.044.87h-.412z" fill="url(#paint1_linear_28_13)"/><path fill-rule="evenodd" clip-rule="evenodd" d="M9.32 2.5c.299.032.181.008.46 0 .099-.09.073-.135.101-.277.01-.05 0-.194 0-.194s.018-.257.067-.36c.082-.18.355-.212.47-.057.372.504.253 1.444-.256 1.746-.335.199-.566.145-.7-.192a1.78 1.78 0 01-.094-.284c-.024-.105-.028-.212-.048-.382z" fill="url(#paint2_linear_28_13)"/><path fill-rule="evenodd" clip-rule="evenodd" d="M9.918 13.835c.064-.257.115-.508.191-.753.049-.156.107-.322.212-.449.186-.223.634-.242.867-.05.28.23.494.502.526.856.035.376.095.758.05 1.13-.033.283-.17.577-.338.824-.382.56-1.42.557-1.817-.018a2.268 2.268 0 01-.36-.956c-.072-.494-.05-1.001-.072-1.503-.006-.149.058-.217.228-.232.232-.02.462-.064.713-.101-.081.25-.174.484-.233.723-.105.436-.12.879.05 1.3.114.276.333.328.594.33.291-.051.46-.117.573-.366a1.04 1.04 0 00.085-.225c.15-.458.01-.512-.446-.505-.248-.013-.498-.005-.823-.005z" fill="url(#paint3_linear_28_13)"/><path fill-rule="evenodd" clip-rule="evenodd" d="M9.564.332c-.583 1.014-.52 2.024-.222 3.076-.08-.017-.165-.02-.234-.053-.337-.158-.695-.208-1.072-.211-.309-.003-.622-.097-.925-.074-.945.068-1.887.168-2.83.266-.499.052-.996.18-1.494.185-.55.006-1.137.088-1.634-.226-.147-.093-.31-.23-.357-.377-.121-.386-.184-.789-.279-1.229h.838c.002-.027.004-.055.004-.082l-.95-.063C.523 1.078.577.624 1 .306c.248-.188.513-.195.826-.125.735.165 1.472.33 2.219.43.692.091 1.399.137 2.1.135C6.87.743 7.6.676 8.322.6c.337-.035.664-.156.997-.236.07-.013.145-.018.244-.033z" fill="url(#paint4_linear_28_13)"/><path fill-rule="evenodd" clip-rule="evenodd" d="M9.461 15.616c-.456-.139-.949-.299-1.451-.434a4.385 4.385 0 00-.862-.153c-.806-.046-1.614-.097-2.42-.088-.625.006-1.253.085-1.875.156-.615.071-1.215.018-1.774-.21-.48-.199-.695-.603-.802-1.052-.196-.821-.165-1.646-.026-2.472.192-1.147.543-2.257.92-3.363.32-.936.643-1.872.958-2.81.149-.444.288-.89.417-1.339.039-.135.091-.21.257-.226.876-.087 1.752-.187 2.629-.279.54-.056 1.086-.166 1.625-.149.696.026 1.413.008 2.077.281.196.08.416.127.63.144.279.023.499-.118.672-.304.362-.384.426-1.28.142-1.715a.493.493 0 00-.475-.24 5.027 5.027 0 01-.58-.008c-.054-.005-.15-.082-.145-.106.091-.331.168-.674.501-.894.275-.182.49-.186.76.007.546.397.779.94.837 1.554.07.743-.028 1.478-.21 2.2a22.35 22.35 0 01-.503 1.631c-.185.553-.401 1.097-.591 1.648-.123.354-.234.712-.335 1.072-.087.309-.156.62-.22.934-.18.873-.42 1.742-.513 2.622-.09.836-.067 1.688-.014 2.529.022.362.242.713.371 1.064zM6.938 4.829l.054-.006c.022.095.05.189.065.285.048.323.09.645.141.968.006.043.05.083.079.123.034-.034.087-.062.099-.101.173-.507.345-1.013.51-1.522.043-.129.073-.261.107-.393.13.245.202.497.285.746.026.074.083.14.127.21.069-.038.142-.07.202-.115.15-.113.295-.232.434-.344l.289.179.06-.064c-.139-.104-.205-.281-.425-.3-.047-.005-.113.041-.15.08-.125.135-.24.278-.36.417-.054-.436-.18-.805-.474-1.126l-.625 1.892-.07-.014-.233-1.243c-.11.107-.174.168-.247.237-.028-.047-.056-.078-.066-.114-.053-.186-.136-.217-.317-.094-.083.057-.222.06-.335.06-.158 0-.317-.04-.475-.037-.723.013-1.443.035-2.166.058-.063.001-.123.025-.184.038l.012.048h3.352l.212.376a4.32 4.32 0 00.099-.244zM6.8 7.537l.683.458c.143.096.246.089.284-.091.008-.04.029-.079.047-.132l.492.258a.382.382 0 00.04-.064.925.925 0 00-.573-.303c-.046-.006-.117.13-.218.248l-.989-.88.133.83-.07.018a99.151 99.151 0 01-.434-.767l-.08.02v.582c-.1-.039-.19-.106-.247-.088-.37.116-.58-.083-.794-.296-.196-.194-.408-.234-.601-.102-.303.206-.602.217-.94.068-.32-.142-.665-.159-1.081-.087.094.035.123.05.155.056.365.071.729.168 1.098.202.249.022.547.02.751-.085.26-.133.4-.038.574.08.052.036.095.094.153.115.358.125.717.24 1.082.361l.03-.32.061-.014c.226.419.454.835.677 1.255.062.118.109.24.343.197-.168-.52-.638-.935-.576-1.52zm2.052-.56c.006-.029.012-.059.02-.087-.25-.29-5.558-.866-6.091-.64.71.06 1.383.111 2.053.178.676.068 1.35.144 2.023.235.668.092 1.33.208 1.995.313zm-1.874 3.365c-.18-.011-.361-.017-.541-.035-.781-.082-1.569-.143-2.344-.257-.594-.088-1.175-.251-1.763-.372-.123-.025-.254-.013-.38-.02 1.719.515 4.499.894 5.028.684zm-3.653.587l-.006.058 4.348.455c-1.445-.505-2.917-.333-4.342-.513zm2.878-1.707c.004-.023.008-.045.01-.067-.335-.064-.69-.085-1.002-.2-.724-.271-1.485-.372-2.25-.475-.08-.01-.162.013-.243.022v.064c1.185.118 2.29.59 3.485.656zm.481-3.62l.006-.077c-.29-.025-.583-.045-.874-.074-.462-.048-.963.108-1.366-.23-.002-.002-.014.005-.04.013v.151l-1.152.052.004.064 3.422.101zm-5.096 6.512c.935.053 1.834.107 2.734.159l.006-.08c-.054-.01-.107-.023-.161-.029-.368-.031-.733-.067-1.1-.088-.4-.022-.802-.034-1.204-.04-.083-.001-.166.045-.275.078zm7.348-6.052l.008-.065-.597-.476c-.073.238-.33.234-.563.305.42-.049.793.067 1.152.236z" fill="url(#paint5_linear_28_13)"/><g clip-path="url(#clip1_28_13)"><path d="M9.559 5.111c-.557.105-1.224.36-1.388.527-.053.055-.177.23-.278.394-.102.159-.2.456-.183.397-.042-.053.063-.376.081-.452 0 0 .013-.045.027-.133.013-.089-.104-.016-.104-.016s-.55.28-.679.384c-.044.038-.084.156-.132.248l-.13.322s0-.169.023-.286c.022-.126.035-.151.024-.18-.011-.03-.134.067-.196.113-.03.023-.253.188-.496.379-.25.196-.521.42-.63.546-.094.105-.208.28-.261.39l-.093.2-.036.36.012.505s-.077-.204-.115-.363c-.038-.16-.008-.232-.036-.276-.028-.043-.179.176-.303.29-.119.116-.309.33-.415.48 0 0-.205.278-.309.586-.103.309-.098.465-.133.65-.035.183-.016.357-.027.37-.046-.017-.129-.32-.141-.233l-.03.207-.027.195-.01-.199s.007-.147 0-.203c-.006-.055-.105.168-.105.168l-.084.23c-.014.098-.027.345.034.585.057.215.171.286.171.286l.243-.482c.022-.084 1.243-1.658 1.243-1.658l.347-.452s.463-.508.79-.813c.473-.448 2.514-1.752 2.514-1.752s.85-.482 1.298-.795c.45-.313.654-.2.813-.42-.11-.02-.226-.005-.422.056-.163.054-.344.145-.349.138-.009-.008.018-.063.058-.121.044-.059.062-.11.04-.11a.563.563 0 00-.164.114l-.133.117.036-.084c.017-.046.037-.115.122-.261.151-.147-.303.023-.467.052z" fill="url(#paint6_linear_28_13)"/><path fill-rule="evenodd" clip-rule="evenodd" d="M10.23 5.606s-.424.303-.508.37c-.216.164-.98.655-1.365.894-.663.414-.846.595-.846.595l-.858.694-.857.75-.835 1.015-.71.957-.421.752.173-.006a.687.687 0 00.239-.07 6.47 6.47 0 01.614-.21c.283-.084.914-.24 1.058-.406.144-.168-.313.005-.54.021-.184.014-.193.037-.326.037-.132 0-.24-.032-.205-.037.062-.008.26-.054.442-.1l.964-.386c.344-.163.528-.249.71-.377.204-.114-.123-.041-.366.018-.046.011-.296.082-.633.118a3.834 3.834 0 01-.76-.036l1.111-.183c.323-.055 1.051-.213 1.33-.347.08-.038.33-.162.458-.288 0 0 .92-.546.39-.49-.53.057-.6.015-.86.046a8.41 8.41 0 01-.841-.017l-.376-.042.493-.065.687-.042.346-.075c.195-.046.454-.078.551-.115.314-.118 1.007-.582 1.289-.818.24-.274.62-.944.58-.978-.012-.012-.163.004-.34.042a3.38 3.38 0 01-.437.059l-.801.06.731-.143c.473-.087.483-.076.81-.17.303-.132.526-.334.332-.309-.055-.015-.174.047-.335.08a4.106 4.106 0 01-.412.049l.356-.144c.062-.025.329-.092.46-.152.13-.059.312-.225.227-.242-.085-.018-.555.05-.568.042-.009-.013.152-.166.248-.273.096-.106.469-.552.347-.56-.1.029-.434.248-.434.248l-.312.234z" fill="url(#paint7_linear_28_13)"/><path fill-rule="evenodd" clip-rule="evenodd" d="M9.683 5.81c-.124.084-.417.22-.615.337-.2.113-.65.401-.877.53-.174.1-.338.2-.396.238-.01.007-.565.41-.996.756-.487.39-.948.8-.961.81a12.507 12.507 0 00-.644.7c-.19.239-.373.497-.426.55-.08.076-.495.666-.561.758-.062.092-.443.635-.601.929-.16.294-.242.543-.242.543l.308.097s.165-.424.257-.569c.118-.233.244-.46.374-.64.044-.059.199-.35.472-.67.078-.09.828-1.061 1.214-1.427a26.553 26.553 0 011.575-1.296 19.762 19.762 0 011.491-1.012c.36-.216.61-.41.737-.502.095-.081.838-.59.803-.624-.035-.033-.793.413-.912.492z" fill="url(#paint8_linear_28_13)"/><path d="M3.186 12.291s-.125.044-.158.174C2.996 12.595 3 13 3 13s.472-.186.526-.368c.054-.182-.043-.23-.043-.23l.2-.371s-.303-.078-.32-.078c-.014 0-.126.277-.177.338z" fill="url(#paint9_linear_28_13)"/><path fill-rule="evenodd" clip-rule="evenodd" d="M3.335 11.942c-.018.055.002.077.158.126.156.05.167.035.184.003.018-.031.01-.072-.12-.115-.129-.043-.204-.07-.222-.014z" fill="#520000"/></g></g><defs><linearGradient id="paint0_linear_28_13" x1="10.432" y1="14.343" x2="10.507" y2="14.822" gradientUnits="userSpaceOnUse"><stop stop-color="#FFFDD3"/><stop offset="1" stop-color="#fff"/></linearGradient><linearGradient id="paint1_linear_28_13" x1="9.51" y1="1.877" x2="9.701" y2="2.33" gradientUnits="userSpaceOnUse"><stop stop-color="#FFFDD3"/><stop offset="1" stop-color="#fff"/></linearGradient><linearGradient id="paint2_linear_28_13" x1="9.884" y1="2.337" x2="10.228" y2="3.4" gradientUnits="userSpaceOnUse"><stop stop-color="#FFFDD3"/><stop offset="1" stop-color="#fff"/></linearGradient><linearGradient id="paint3_linear_28_13" x1="10.293" y1="13.863" x2="10.815" y2="15.728" gradientUnits="userSpaceOnUse"><stop stop-color="#FFFDD3"/><stop offset="1" stop-color="#fff"/></linearGradient><linearGradient id="paint4_linear_28_13" x1="4.333" y1="1.567" x2="4.496" y2="3.588" gradientUnits="userSpaceOnUse"><stop stop-color="#FFFDD3"/><stop offset="1" stop-color="#fff"/></linearGradient><linearGradient id="paint5_linear_28_13" x1="5.008" y1="6.689" x2="7.508" y2="15.177" gradientUnits="userSpaceOnUse"><stop stop-color="#FFFDD3"/><stop offset="1" stop-color="#fff"/></linearGradient><linearGradient id="paint6_linear_28_13" x1="6.923" y1="4.504" x2="9.067" y2="11.021" gradientUnits="userSpaceOnUse"><stop offset=".125" stop-color="#F0CEC7"/><stop offset=".573" stop-color="#E61E1E"/></linearGradient><linearGradient id="paint7_linear_28_13" x1="7.239" y1="4.634" x2="9.409" y2="11.041" gradientUnits="userSpaceOnUse"><stop offset=".125" stop-color="#F0CEC7"/><stop offset=".573" stop-color="#E61E1E"/></linearGradient><linearGradient id="paint8_linear_28_13" x1="8.569" y1="6.046" x2="3.18" y2="13.735" gradientUnits="userSpaceOnUse"><stop stop-color="#C4C2C2"/><stop offset="1" stop-color="#030303"/></linearGradient><linearGradient id="paint9_linear_28_13" x1="3.341" y1="11.953" x2="3.253" y2="12.994" gradientUnits="userSpaceOnUse"><stop offset=".078" stop-color="#F1CB01"/><stop offset=".859" stop-color="#D96800"/></linearGradient><clipPath id="clip0_28_13"><path fill="#fff" d="M0 0h12v16H0z"/></clipPath><clipPath id="clip1_28_13"><path fill="#fff" transform="translate(3 5)" d="M0 0h8v8H0z"/></clipPath></defs></svg>