<svg width="113" height="120" fill="none" xmlns="http://www.w3.org/2000/svg"><g clip-path="url(#clip0_2_2)"><path fill-rule="evenodd" clip-rule="evenodd" d="M92.198 11.81l.051 37.472 18.186 30.139-9.089 6.006 1.767 7.598-10.643 3.143-.147 7.647-24.356.583-19.608 11.715-4.126-7.144-10.778 2.961-2.473-7.722-10.553-.518-.106-34.991-3.093-5.66L1.906 36.002l9.111-5.375-1.44-7.708 9.99-3.055.986-7.555 26.422-1.526L64.214.674l4.132 5.794 10.375-2.331 2.69 7.644 10.787.029z" fill="#fff"/><path fill-rule="evenodd" clip-rule="evenodd" d="M65.198-2c.87 1.27 3.59 6.06 4.41 6.42.77.33 6.76-1.67 8.64-2.16 1.65-.43 2.5.06 2.96 1.72.53 1.91 1.04 3.83 1.6 5.87 1.61 0 7.92-.03 9.48.02 1.34.04 1.98.72 2.04 2.05.02.39 0 23.43.04 34.56 0 .81.25 1.7.65 2.4 5.6 9.78 11.25 19.54 16.89 29.31 1.14 1.97.94 2.74-1.02 3.87-2.26 1.31-4.52 2.63-6.799 3.91-.56.32.409 4.75.849 6.48.38 1.47-.099 2.35-1.57 2.76-2.669.75-9.09 2.66-9.05 3.49.07 1.44.02 2.89.02 4.33 0 2.68-.39 3.08-3.02 3.08-6.99 0-13.98-.02-20.97.02-.7 0-1.47.22-2.08.56-6.2 3.53-12.38 7.12-18.56 10.68-1.79 1.03-2.6.82-3.62-.95-.84-1.45-1.69-2.9-2.5-4.37-.29-.53-6.48.93-9.11 1.63-1.83.48-2.63.03-3.13-1.77-.53-1.91-1.04-3.83-1.57-5.81h-8.96c-1.99 0-2.56-.58-2.56-2.6 0-11.29.01-22.57-.03-33.86 0-.88-.25-1.86-.69-2.63-5.6-9.79-11.25-19.54-16.88-29.31-1.09-1.89-.88-2.67 1.03-3.77 2.26-1.31 4.52-2.63 6.8-3.9.62-.35.78-.68.57-1.39-.49-1.6-.88-3.23-1.3-4.86-.49-1.87-.06-2.6 1.78-3.09 2.89-.78 5.78-1.57 8.74-2.37v-5.68c0-2.29.52-2.8 2.85-2.8 7.07 0 22.55-.16 23.09-.47C50.728 5.66 65.198-2 65.198-2zm25.25 15.81h-68.27v88.38h68.27V13.81zm4.14 54.99c-.06 0-.12.01-.17.01V93.6c2.16-.58 4.21-1.12 6.361-1.7-2.09-7.77-4.14-15.43-6.19-23.1zm-82.78-44.71c2.09 7.78 4.14 15.46 6.2 23.14.05-.01.1-.03.15-.04v-24.8c-2.16.58-4.21 1.13-6.35 1.7zm4.66 33.31c.08-.03.16-.05.23-.08-2.12-7.92-4.25-15.85-6.4-23.88-1.98 1.14-3.83 2.21-5.75 3.32 4.01 6.93 7.96 13.78 11.92 20.64zm91.57 21.84c-4.01-6.95-7.98-13.82-11.94-20.69-.07.03-.14.06-.22.09 2.13 7.93 4.25 15.85 6.41 23.91 1.96-1.13 3.811-2.2 5.75-3.31zM77.848 6.38c-4.1 1.1-8.04 2.16-11.98 3.22.02.05.04.09.05.14h12.84c-.32-1.16-.6-2.2-.91-3.36zm-43.11 103.23c4.1-1.1 8.09-2.17 12.07-3.25-.01-.05-.03-.11-.04-.16h-12.94c.31 1.19.6 2.26.91 3.41zM63.758 2.56l-10.82 6.26c.03.07.07.14.1.21 4.14-1.11 8.27-2.23 12.51-3.37-.63-1.1-1.17-2.04-1.79-3.1zm-4.1 104.61l-.09-.21-12.53 3.36c.63 1.09 1.19 2.05 1.79 3.1 3.67-2.12 7.25-4.18 10.83-6.25z" fill="#060606"/><path d="M51.96 43.071c-.246 1.046-1.263 1.437-1.968.753-.242-.236-.78-.796-.848-.86 0 .13-.008 5.475.006 8.058.003.549-.258.98-.813.978-4.225-.015-8.448-.015-12.673 0-.562.002-.816-.438-.812-.978.014-2.576.006-7.911.006-8.06-.085.083-.599.613-.803.82-.727.737-1.749.366-2.02-.731a7.388 7.388 0 01-.035-.622c.112-.5.405-.829.72-1.154 2.858-2.957 5.711-5.92 8.566-8.883.506-.526.928-.522 1.437.008.894.931 2.729 2.82 2.782 2.859 0-.244.003-.455-.003-.669-.002-.037-.108-.16-.132-.187-.234-.289-.247-1.523.002-1.791a.607.607 0 01.397-.199c1.048-.017 2.095-.011 3.144-.007.328.002.543.27.55.668.004.289.021.581-.008.866-.017.172-.116.332-.177.496-.034.092-.094.186-.094.28-.006 1.397-.006 2.793.002 4.19 0 .107.051.242.119.313.653.694 1.31 1.381 1.976 2.056.317.32.607.655.719 1.154 0 .17-.03.556-.04.642zm-9.955-7.526c-.04.036-.061.053-.08.074-2.122 2.199-4.244 4.398-6.36 6.605a.516.516 0 00-.117.315c-.004 1.624.002 3.247.002 4.871 0 1.21-.002 2.419-.01 3.629 0 .191.046.26.212.257.48-.012.964-.004 1.445-.004h.416v-6.681c0-.575.209-.824.69-.824h3.008c.539 0 .731.228.731.87v6.635h6.353c.263 0 .264 0 .264-.326 0-2.786-.001-5.574.004-8.36a.56.56 0 00-.166-.436c-1.53-1.577-3.053-3.162-4.58-4.745a830.274 830.274 0 00-1.812-1.88zm8.753 7.968l.023-.045c.058-.013.116-.018.172-.037.247-.09.4-.292.449-.59.053-.322-.061-.572-.264-.782-2.925-3.033-5.849-6.064-8.77-9.097-.324-.335-.409-.337-.73-.004-1.993 2.067-3.986 4.135-5.98 6.201-.935.97-1.869 1.941-2.805 2.91a.867.867 0 00-.247.81c.099.522.661.801 1.103.34 2.613-2.724 5.235-5.437 7.852-8.153.322-.334.556-.337.877-.004l2.628 2.726a2076.02 2076.02 0 005.243 5.433c.127.131.299.197.449.292zm-12.65.982v6.737h3.228v-6.737h-3.228zm7.984-9.883c0 .37.008.712-.003 1.055a.473.473 0 00.142.379c.692.708 1.378 1.425 2.067 2.14.086.09.174.175.283.288v-3.861h-2.489zm2.777-1.495H45.81v.769h3.058v-.769zm-3.616 10.668c.611 0 1.224-.002 1.834 0 .425.002.647.27.647.783.002 1.132.002 2.261 0 3.393-.001.496-.228.776-.637.776a619.27 619.27 0 01-3.708 0c-.403-.002-.634-.272-.636-.754a425.509 425.509 0 010-3.464c.002-.468.233-.734.627-.736l1.873.002zm-1.901 2.835v1.399h1.584v-1.4h-1.584zm3.786.003h-1.59v1.4h1.59v-1.4zm-3.793-.734h1.593v-1.385h-1.593v1.385zm2.2.002h1.59V44.5h-1.59v1.39zm-7.065 2.35c0-.123-.005-.248.001-.372.01-.199.102-.318.267-.333.168-.015.288.093.302.284.02.285.022.575.002.86-.014.191-.138.306-.3.29-.16-.014-.261-.13-.27-.333-.005-.131-.002-.262-.002-.395z" fill="#000"/><path fill-rule="evenodd" clip-rule="evenodd" d="M73.99 52c-5.484-.033-10.09-4.65-9.988-10.186.095-5.325 4.587-9.822 10.006-9.814 5.562.006 9.998 4.714 9.992 10.004-.006 5.315-4.461 9.969-10.01 9.996zm8.805-9.979c-.014-4.824-3.661-8.67-8.53-8.806-5.013-.14-8.812 3.617-9.038 8.297-.254 5.225 3.666 9.112 8.463 9.267 5.02.16 9.05-3.656 9.105-8.758z" fill="#000"/><path fill-rule="evenodd" clip-rule="evenodd" d="M72.14 43.382v1.143h5.932v1.218h-5.933v2.035h-1.222v-2.021h-1.38v-1.219h1.36v-1.176h-1.364V42.17h1.366v-5.549c.097-.006.167-.011.236-.011 1.553 0 3.107.015 4.66-.004 1.577-.02 3.07 1.306 3.344 2.819.344 1.891-1.126 3.596-2.728 3.866-.632.106-1.29.063-1.938.071-.708.01-1.415 0-2.122.002-.064.004-.128.012-.212.018zm.005-1.233c.049.008.07.016.091.016 1.225.002 2.448.02 3.673-.004.581-.012 1.114-.213 1.515-.663.471-.527.613-1.147.533-1.84-.114-1.002-.899-1.787-1.909-1.814-1.244-.031-2.492-.016-3.736-.027-.175-.002-.178.085-.178.217.003 1.304.001 2.608.001 3.912-.001.064.006.128.01.203z" fill="#00AA25"/><path fill-rule="evenodd" clip-rule="evenodd" d="M48 74.096c-.065-5.45 4.373-10.02 9.769-10.095 6.049-.083 10.184 4.805 10.23 9.954.05 5.323-4.399 9.872-9.652 10.04-5.553.179-10.374-4.348-10.346-9.9zm18.835-.094a8.903 8.903 0 00-9.028-8.875c-4.79.058-8.763 4.103-8.672 8.958.094 5.009 3.876 8.748 9.011 8.762 4.736.013 8.706-4.067 8.689-8.845z" fill="#000"/><path fill-rule="evenodd" clip-rule="evenodd" d="M52.319 79.225c-.65.01-.743-.218-.74-.873.003-1.129.172-1.169 1.295-1.73.17-.086.253-.483.259-.736.022-1.586-.011-3.175.016-4.764.055-2.959 1.095-4.913 4.803-4.92 3.709-.005 4.465 2.932 4.525 4.895.05 1.617-.003 3.233.025 4.85.003.234.143.55.325.68 1 .696 1.585 1.006 1.246 2.138-.063.21-.518.421-.796.427-1.82.038-9.166.003-10.958.033zm9.44-2.843c0-2.126.112-4.208-.036-6.273-.124-1.71-1.823-3.076-3.461-3.213-2.533-.213-4.168 1.467-4.3 2.927-.196 2.164-.05 4.359-.05 6.559h7.846zm-9.474 1.734h11.051c-.28-.735-.749-1-1.454-.994-2.728.02-5.456.02-8.185 0-.71-.005-1.15.284-1.412.994z" fill="#000"/><path d="M56.412 70.882h1.193l-.008-1.32h.48l.009 1.32 1.093.014v.44h-1.085l.016 3.244h-.495v-3.244h-1.209l.006-.454z" fill="#000"/></g><defs><clipPath id="clip0_2_2"><path fill="#fff" d="M0 0h112.606v119.99H0z"/></clipPath></defs></svg>