<svg width="60" height="49" fill="none" xmlns="http://www.w3.org/2000/svg"><g clip-path="url(#clip0_1_3)" fill-rule="evenodd" clip-rule="evenodd"><path d="M57.75 18H48V2.25C48 1.031 46.969 0 45.75 0h-19.5C24.937 0 24 1.031 24 2.25V9H2.25C.937 9 0 10.031 0 11.25V46.5c0 .844.656 1.5 1.5 1.5H3c.75 0 1.5-.656 1.5-1.5v-33H24l.075 33.13s-.264 1.498 1.92 1.51c2.184.011 1.94-1.502 1.94-1.502l.397-33.388.168-8.75h15v18h12v24c0 .844.656 1.5 1.5 1.5h1.5c.75 0 1.5-.656 1.5-1.5V20.25c0-1.219-1.031-2.25-2.25-2.25z" fill="#241610"/><path d="M20.875 26h-3.75c-.656 0-1.125.563-1.125 1.125v3.75c0 .656.469 1.125 1.125 1.125h3.75c.563 0 1.125-.469 1.125-1.125v-3.75c0-.563-.563-1.125-1.125-1.125z" fill="url(#paint0_linear_1_3)"/><path d="M11.875 26h-3.75C7.469 26 7 26.563 7 27.125v3.75C7 31.531 7.469 32 8.125 32h3.75c.563 0 1.125-.469 1.125-1.125v-3.75c0-.563-.563-1.125-1.125-1.125z" fill="url(#paint1_linear_1_3)"/><path d="M11.875 35h-3.75C7.469 35 7 35.563 7 36.125v3.75C7 40.531 7.469 41 8.125 41h3.75c.563 0 1.125-.469 1.125-1.125v-3.75c0-.563-.563-1.125-1.125-1.125z" fill="url(#paint2_linear_1_3)"/><path d="M11.875 17h-3.75C7.469 17 7 17.563 7 18.125v3.75C7 22.531 7.469 23 8.125 23h3.75c.563 0 1.125-.469 1.125-1.125v-3.75c0-.563-.563-1.125-1.125-1.125z" fill="url(#paint3_linear_1_3)"/><path d="M20.875 17h-3.75c-.656 0-1.125.563-1.125 1.125v3.75c0 .656.469 1.125 1.125 1.125h3.75c.563 0 1.125-.469 1.125-1.125v-3.75c0-.563-.563-1.125-1.125-1.125z" fill="url(#paint4_linear_1_3)"/><path d="M20.875 35h-3.75c-.656 0-1.125.563-1.125 1.125v3.75c0 .656.469 1.125 1.125 1.125h3.75c.563 0 1.125-.469 1.125-1.125v-3.75c0-.563-.563-1.125-1.125-1.125z" fill="url(#paint5_linear_1_3)"/><path d="M37.875 8h-3.75C33.469 8 33 8.563 33 9.125v3.75c0 .656.469 1.125 1.125 1.125h3.75c.563 0 1.125-.469 1.125-1.125v-3.75C39 8.562 38.437 8 37.875 8z" fill="url(#paint6_linear_1_3)"/><path d="M49.875 26h-3.75c-.656 0-1.125.563-1.125 1.125v3.75c0 .656.469 1.125 1.125 1.125h3.75c.563 0 1.125-.469 1.125-1.125v-3.75c0-.563-.563-1.125-1.125-1.125z" fill="url(#paint7_linear_1_3)"/><path d="M49.875 35h-3.75c-.656 0-1.125.563-1.125 1.125v3.75c0 .656.469 1.125 1.125 1.125h3.75c.563 0 1.125-.469 1.125-1.125v-3.75c0-.563-.563-1.125-1.125-1.125z" fill="url(#paint8_linear_1_3)"/><path d="M37.875 35h-3.75c-.656 0-1.125.563-1.125 1.125v3.75c0 .656.469 1.125 1.125 1.125h3.75c.563 0 1.125-.469 1.125-1.125v-3.75c0-.563-.563-1.125-1.125-1.125z" fill="url(#paint9_linear_1_3)"/><path d="M37.875 26h-3.75c-.656 0-1.125.563-1.125 1.125v3.75c0 .656.469 1.125 1.125 1.125h3.75c.563 0 1.125-.469 1.125-1.125v-3.75c0-.563-.563-1.125-1.125-1.125z" fill="url(#paint10_linear_1_3)"/><path d="M37.875 17h-3.75c-.656 0-1.125.563-1.125 1.125v3.75c0 .656.469 1.125 1.125 1.125h3.75c.563 0 1.125-.469 1.125-1.125v-3.75c0-.563-.563-1.125-1.125-1.125z" fill="url(#paint11_linear_1_3)"/></g><defs><linearGradient id="paint0_linear_1_3" x1="17.667" y1="29.442" x2="19.591" y2="31.427" gradientUnits="userSpaceOnUse"><stop stop-color="#66D1FF"/><stop offset="1" stop-color="#3F75A7"/></linearGradient><linearGradient id="paint1_linear_1_3" x1="8.667" y1="29.442" x2="10.591" y2="31.427" gradientUnits="userSpaceOnUse"><stop stop-color="#66D1FF"/><stop offset="1" stop-color="#3F75A7"/></linearGradient><linearGradient id="paint2_linear_1_3" x1="8.667" y1="38.442" x2="10.591" y2="40.427" gradientUnits="userSpaceOnUse"><stop stop-color="#66D1FF"/><stop offset="1" stop-color="#3F75A7"/></linearGradient><linearGradient id="paint3_linear_1_3" x1="8.667" y1="20.442" x2="10.591" y2="22.427" gradientUnits="userSpaceOnUse"><stop stop-color="#66D1FF"/><stop offset="1" stop-color="#3F75A7"/></linearGradient><linearGradient id="paint4_linear_1_3" x1="17.667" y1="20.442" x2="19.591" y2="22.427" gradientUnits="userSpaceOnUse"><stop stop-color="#66D1FF"/><stop offset="1" stop-color="#3F75A7"/></linearGradient><linearGradient id="paint5_linear_1_3" x1="17.667" y1="38.442" x2="19.591" y2="40.427" gradientUnits="userSpaceOnUse"><stop stop-color="#66D1FF"/><stop offset="1" stop-color="#3F75A7"/></linearGradient><linearGradient id="paint6_linear_1_3" x1="34.667" y1="11.442" x2="36.591" y2="13.427" gradientUnits="userSpaceOnUse"><stop stop-color="#66D1FF"/><stop offset="1" stop-color="#3F75A7"/></linearGradient><linearGradient id="paint7_linear_1_3" x1="46.667" y1="29.442" x2="48.591" y2="31.427" gradientUnits="userSpaceOnUse"><stop stop-color="#66D1FF"/><stop offset="1" stop-color="#3F75A7"/></linearGradient><linearGradient id="paint8_linear_1_3" x1="46.667" y1="38.442" x2="48.591" y2="40.427" gradientUnits="userSpaceOnUse"><stop stop-color="#66D1FF"/><stop offset="1" stop-color="#3F75A7"/></linearGradient><linearGradient id="paint9_linear_1_3" x1="34.667" y1="38.442" x2="36.591" y2="40.427" gradientUnits="userSpaceOnUse"><stop stop-color="#66D1FF"/><stop offset="1" stop-color="#3F75A7"/></linearGradient><linearGradient id="paint10_linear_1_3" x1="34.667" y1="29.442" x2="36.591" y2="31.427" gradientUnits="userSpaceOnUse"><stop stop-color="#66D1FF"/><stop offset="1" stop-color="#3F75A7"/></linearGradient><linearGradient id="paint11_linear_1_3" x1="34.667" y1="20.442" x2="36.591" y2="22.427" gradientUnits="userSpaceOnUse"><stop stop-color="#66D1FF"/><stop offset="1" stop-color="#3F75A7"/></linearGradient><clipPath id="clip0_1_3"><path fill="#fff" d="M0 0h60v48.14H0z"/></clipPath></defs></svg>