<svg width="40" height="40" xmlns:xlink="http://www.w3.org/1999/xlink" xmlns="http://www.w3.org/2000/svg"><defs><linearGradient gradientUnits="userSpaceOnUse" x1="10.248" y1="25.696" x2="11.015" y2="4.056" id="c"><stop offset="0%" stop-color="#5C3308"/><stop offset="100%" stop-color="#CA9934"/></linearGradient><linearGradient gradientUnits="userSpaceOnUse" x1="17.148" y1="-.007" x2="20.078" y2="9.504" id="d"><stop offset="1.042%" stop-color="#FFC700"/><stop offset="100%" stop-color="#E77300"/><stop offset="100%" stop-color="#E77300"/></linearGradient><linearGradient gradientUnits="userSpaceOnUse" x1=".635" y1=".49" x2=".069" y2=".281" id="e"><stop offset="0%" stop-color="#FFFDD3"/><stop offset="100%" stop-color="#FFF"/></linearGradient><linearGradient gradientUnits="userSpaceOnUse" x1=".657" y1=".554" x2=".07" y2=".493" id="f"><stop offset="0%" stop-color="#FFFDD3"/><stop offset="100%" stop-color="#FFF"/></linearGradient><linearGradient gradientUnits="userSpaceOnUse" x1="1.212" y1="1.029" x2="-.124" y2=".774" id="g"><stop offset="0%" stop-color="#FFFDD3"/><stop offset="100%" stop-color="#FFF"/></linearGradient><linearGradient gradientUnits="userSpaceOnUse" x1="2.332" y1="1.73" x2=".023" y2="1.189" id="h"><stop offset="0%" stop-color="#FFFDD3"/><stop offset="100%" stop-color="#FFF"/></linearGradient><linearGradient gradientUnits="userSpaceOnUse" x1="4.77" y1="4.238" x2="2.464" y2="3.17" id="i"><stop offset="0%" stop-color="#FFFDD3"/><stop offset="100%" stop-color="#FFF"/></linearGradient><linearGradient gradientUnits="userSpaceOnUse" x1="11.75" y1="9.745" x2="1.188" y2="7.425" id="j"><stop offset="0%" stop-color="#FFFDD3"/><stop offset="100%" stop-color="#FFF"/></linearGradient><linearGradient gradientUnits="userSpaceOnUse" x1="1.257" y1="2.406" x2="2.904" y2="5.628" id="k"><stop offset="0%" stop-color="#FCD8C8"/><stop offset="100%" stop-color="#C72A2A"/></linearGradient><linearGradient gradientUnits="userSpaceOnUse" x1="1.207" y1="2.379" x2="2.865" y2="5.528" id="l"><stop offset="0%" stop-color="#FCD8C8"/><stop offset="100%" stop-color="#C72A2A"/></linearGradient><linearGradient gradientUnits="userSpaceOnUse" x1="5.204" y1=".821" x2="-1.437" y2="8.483" id="m"><stop offset="0%" stop-color="#C4C2C2"/><stop offset="100%" stop-color="#030303"/></linearGradient><linearGradient gradientUnits="userSpaceOnUse" x1=".341" y1="0" x2=".219" y2="1.168" id="n"><stop offset="7.813%" stop-color="#F1CB01"/><stop offset="85.938%" stop-color="#D96800"/></linearGradient><linearGradient gradientUnits="userSpaceOnUse" x1="4.236" y1="1.915" x2="11.224" y2="15.755" id="o"><stop offset="13.542%" stop-color="#B36E07"/><stop offset="69.271%" stop-color="#542D05"/></linearGradient><clipPath id="b"><use xlink:href="#a"/></clipPath><path d="M0 0h40v40H0V0z" id="a"/></defs><path d="M0 0h40v40H0V0z" fill="none"/><g clip-path="url(#b)"><g fill-rule="evenodd"><path d="M17.363 1.575l-.036 3.556.05 3.445s.08.402.236.731c.157.33.39.588.39.588v11.199s-.394-.007-.474.324c-.08.33.008.733 0 1.295 0 0-.066 1.415-.202 1.67-.28.87-.67 1.569-1.198 2.157-1.345 1.508-3.893 2.378-6.72 2.557-.367-.01-.777-.303-1.088.05-.311.354 0 .853 0 .853h21.231s.286-.57 0-.852c-.286-.283-.591-.034-.988-.051-1.485-.052-3.11-.41-4.331-.946a7.977 7.977 0 01-1.253-.708c-1.22-.912-1.928-1.568-2.301-3.068-.078-.533-.171-1.832-.171-1.832-.008-.418.11-.774 0-1.125-.111-.352-.444-.282-.444-.282V9.901s.31-.547.447-.862c.136-.316.098-.6.098-.6l.015-3.342s.047-1.973.008-3.356c-.014-.28-.218-1.744-1.696-1.741-1.477.004-1.573 1.575-1.573 1.575z" fill="url(#c)" transform="translate(1 5)"/><path d="M24.536 17.855l.506.546c.94 1.022 2.278 1.823 3.71 2.233.334.093 1.057.212 1.601.264l1.004.102.94-.102c.522-.052 1.222-.17 1.556-.273 1.423-.392 2.784-1.21 3.71-2.233.256-.281.459-.537.435-.554-.046-.051-13.462.017-13.462.017zM0 22.423s1.042 1.313 1.71 1.765c.748.502 1.689.903 2.684 1.133l.7.17 1.089.052 1.088.05.887-.144c1.478-.239 2.629-.708 3.686-1.492.553-.4 1.571-1.44 1.501-1.525C13.306 22.398 0 22.423 0 22.423z" fill="url(#d)" transform="translate(1 5)"/><path d="M31.81 11.7l-5.574 11.155.872-.002 4.728-9.884.023 4.926.019 4.937h.774l.016-4.707-.054-5.139 4.74 9.843.9-.002c0-.025-.788-1.65-.788-1.65-.435-.862-4.807-9.435-4.807-9.435l-.848-.041zM1.593 27.432l.862.002 4.65-9.615.034 9.61.822-.002s.008-9.652.04-9.61c.038.035 4.717 9.617 4.717 9.617s.71.007.872.003c0-.025-5.629-11.39-5.629-11.442h-.878l-5.49 11.437z" fill="#AA9B6B"/><path d="M32.37 8.38c-1.29.118-1.483 1.333-1.483 1.333l-.895-.068c-.357-.034-1.236-.188-1.967-.35-2.24-.502-4.402-.8-5.794-.8h-.617l.005 1.32 1.118.009 1.166.008 1.182.188c.653.102 1.789.324 2.528.486l1.345.307 1.042.042 1.034.051s.203.923 1.324.968c1.143-.12 1.681-.68 1.694-1.854-.108-1.01-.521-1.537-1.683-1.64zm-14.805.788c-.451.179-1.042.443-1.322.596-.801.452-1.735 1.16-2.831 2.165-.56.511-1.283 1.1-1.602 1.304-.599.392-1.478.741-2.108.844l-.541.036s0-1.56-1.542-1.609c-1.197.04-1.715 1.046-1.692 1.888.138 1.528 1.166 1.707 1.685 1.764 1.046-.07 1.313-.741 1.313-.741l.606-.06c1.696-.17 2.901-.81 4.65-2.471.934-.878 1.937-1.637 2.7-2.029.66-.34 1.461-.6 1.461-.6l-.004-1.388s-.322.122-.773.3z" fill="#A39B9B"/></g><g fill-rule="evenodd"><path d="M18.54 28.125c.132-.183.243-.357.372-.519.536-.672 1.116-.868 1.993-.352.254.148.509.296.771.424.063.03.159-.016.272-.03.237.273.494.572.75.871.356.41.348.88.226 1.32-.055.195-.278.342-.448.485-.52.437-.957.96-1.433 1.442-.885.9-1.423 2.039-2.127 3.061a3.79 3.79 0 00-.595 1.496c-.018.099-.054.196-.085.29-.115.355-.226.713-.348 1.065-.12.346-.395.508-.734.565-.693.115-1.352-.054-1.98-.432-.915-.55-1.665-1.308-2.379-2.104-.508-.565-.95-1.195-1.482-1.732-.404-.406-.665-.907-1.038-1.326-.893-1.005-1.765-2.033-2.683-3.01-.535-.571-1.145-1.07-1.724-1.595-.112-.1-.245-.176-.395-.283-.166.457-.336.888-.479 1.326-.11.332-.273.58-.623.683-.61.177-1.162-.068-1.699-.36-.567-.313-1.055-.73-1.4-1.31-.48-.803-.312-1.598.407-2.07.32-.212.586-.51.883-.76.573-.48 1.22-.875 1.646-1.52.303-.46.604-.922.935-1.36.493-.653.868-1.372 1.181-2.14a4.05 4.05 0 011.387-1.761.976.976 0 01.826-.183c.685.164 1.319.408 1.926.855 1.532 1.125 2.78 2.533 3.979 4 .17.209.346.414.54.599.623.588 1.084 1.305 1.589 1.99.474.643 1.016 1.234 1.528 1.85.142.167.284.336.441.525zm-.628 8.914c.042-.101.08-.172.104-.249.11-.36.17-.746.329-1.08.338-.713.687-1.426 1.1-2.09.4-.64.852-1.25 1.344-1.813.532-.608 1.124-1.158 1.716-1.707.25-.232.394-.481.345-.843-.086-.617-.52-.999-.936-1.443-.22.297-.415.557-.612.82a1.614 1.614 0 00-.081-.064l.48-.763c-.507-.235-.958-.472-1.426-.643-.176-.064-.412-.017-.593.05-.608.223-.861.817-1.17 1.322-.28.458-.434 1.001-.666 1.496a81.06 81.06 0 01-1.35 2.772c-.151.294-.426.509-.606.788-.221.34-.477.63-.833.822-.071.04-.124.114-.19.174 1.26.499 2.336 1.18 3.045 2.45zm-2.093-1.806c-.188-.106-.299-.18-.418-.235a2.19 2.19 0 00-.346-.123c-.426-.121-.612.047-.6.498.018.686.922 1.48 1.652 1.509.224.01.35-.263.212-.47-.08-.12-.21-.208-.334-.324-.075.108-.111.208-.18.244-.075.037-.22.054-.267.008-.13-.13-.227-.297-.298-.398l.58-.709zm.113.075l-.238.377c.297.228.58.447.872.676.055-.073.144-.148.175-.246.024-.073 0-.215-.053-.258-.235-.193-.49-.36-.756-.55z" fill="#402600"/><path d="M2.617 9.125l-.657 1.042c-.154-.152-.324-.301-.47-.47-.152-.173-.187-.374-.086-.576.122-.243.339-.331.59-.273.204.046.393.17.623.277z" fill="url(#e)" transform="translate(1 18.279)"/><path d="M14.932 17.029c.266.189.521.356.758.548.052.042.073.185.052.257-.03.098-.12.173-.175.246-.295-.227-.578-.446-.871-.676l.236-.375z" fill="url(#f)" transform="translate(1 18.279)"/><path d="M14.82 16.954c-.204.25-.113.16-.265.42.037.155.098.165.229.295.046.046.199.14.199.14s.254.205.333.325c.138.207.014.478-.211.47-.732-.03-1.633-.825-1.652-1.509-.013-.45.174-.621.6-.498.116.032.233.072.345.123.123.055.235.13.421.235z" fill="url(#g)" transform="translate(1 18.279)"/><path d="M2.8 9.222c.227.246.457.476.665.725.133.158.271.332.34.52.124.332-.113.755-.444.826-.398.087-.801.084-1.184-.145-.407-.243-.835-.467-1.192-.779-.273-.238-.497-.578-.655-.91-.359-.757.24-1.7 1.06-1.643.4.028.826.173 1.19.37.552.296 1.062.686 1.592 1.033.156.103.19.211.108.377-.112.226-.2.467-.305.723-.212-.257-.4-.512-.612-.74-.389-.414-.836-.752-1.367-.903-.35-.099-.53.063-.68.3-.115.301-.145.504.048.788.06.106.15.206.182.242.386.47.522.382.776-.037.156-.217.29-.451.477-.747z" fill="url(#h)" transform="translate(1 18.279)"/><path d="M16.913 18.76c-.71-1.271-1.787-1.952-3.042-2.448.065-.06.117-.136.19-.175.355-.192.612-.48.832-.822.18-.279.456-.495.607-.787.471-.91.91-1.842 1.35-2.773.232-.492.385-1.037.665-1.496.309-.504.562-1.099 1.17-1.322.18-.066.415-.115.594-.05.467.172.918.409 1.425.644l-.48.763c.026.021.054.043.082.063.195-.26.388-.522.61-.82.414.445.851.827.937 1.443.05.363-.094.61-.345.843-.592.55-1.184 1.1-1.715 1.707a14.093 14.093 0 00-1.344 1.814c-.414.664-.763 1.377-1.101 2.089-.157.333-.22.719-.329 1.08-.027.075-.065.146-.106.247z" fill="url(#i)" transform="translate(1 18.279)"/><path d="M1.227 7.506c.404-.314.852-.646 1.28-1.005.239-.2.468-.423.652-.673.51-.7 1.025-1.399 1.478-2.139.352-.574.631-1.203.915-1.822.28-.612.678-1.12 1.235-1.462.48-.293 1.018-.193 1.542.038.959.421 1.791 1.051 2.562 1.781 1.072 1.013 2.014 2.143 2.937 3.294.781.974 1.56 1.952 2.346 2.923.372.46.751.913 1.14 1.359.116.133.163.235.085.398-.413.862-.813 1.733-1.22 2.598-.252.534-.452 1.11-.78 1.588-.425.616-.818 1.282-1.48 1.687a1.96 1.96 0 00-.51.469c-.183.237-.164.54-.072.834.188.61 1.074 1.323 1.685 1.381.239.023.405-.05.52-.256a4.6 4.6 0 01.34-.522c.036-.047.172-.078.193-.055.289.324.599.645.634 1.109.03.382-.09.582-.443.686-.723.208-1.416.022-2.082-.372-.806-.479-1.505-1.105-2.145-1.798a33.233 33.233 0 01-1.393-1.649c-.463-.573-.899-1.166-1.358-1.742-.294-.37-.599-.733-.912-1.087-.268-.305-.55-.596-.836-.883-.796-.8-1.554-1.654-2.407-2.381-.81-.694-1.7-1.294-2.597-1.86-.386-.245-.874-.3-1.31-.439zm12.56 5.579c-.009.017-.016.036-.025.054-.11-.05-.224-.092-.331-.15-.36-.191-.717-.388-1.078-.578-.048-.025-.114-.014-.172-.018.016.056.014.125.047.164.423.528.846 1.054 1.275 1.576.109.133.228.257.344.385-.326-.061-.628-.18-.932-.285-.091-.03-.192-.028-.29-.039 0 .091-.01.18.004.269.03.219.07.438.104.646-.145.054-.247.093-.349.133l.031.101c.187-.05.408.018.554-.168.03-.04.022-.134.003-.195-.068-.213-.149-.422-.224-.632.481.27.934.422 1.432.39a879.445 879.445 0 01-1.59-1.95l.054-.054 1.415.695c-.047-.177-.073-.28-.103-.398.065.01.113.006.156.023.221.088.3.035.278-.22-.01-.117.066-.246.131-.349.09-.143.223-.26.31-.405.401-.668.792-1.34 1.183-2.015.035-.058.045-.13.066-.195l-.056-.024-1.922 3.052a41.12 41.12 0 01-.51-.081c.096.136.145.203.195.268zm-2.711-2.103l-.863.288c-.182.06-.233.159-.07.325.037.037.065.083.11.139l-.55.26c.014.028.027.056.044.083a.896.896 0 00.64-.3c.034-.039-.065-.202-.13-.38l1.474-.26-.93-.483.021-.078c.347.055.694.109 1.04.165l.023-.087-.598-.424c.097-.064.218-.098.232-.162.093-.421.418-.467.76-.507.313-.036.476-.2.45-.473-.038-.427.122-.706.469-.905.331-.188.546-.49.71-.921-.09.06-.122.075-.146.1-.284.28-.591.541-.839.853-.165.21-.335.483-.343.746-.012.334-.19.392-.412.463-.067.022-.15.018-.206.056-.333.235-.659.477-.992.722l.313.262a50.38 50.38 0 01-.021.065c-.562-.1-1.121-.196-1.682-.301-.156-.029-.309-.075-.399.17.632.226 1.33.1 1.895.584zm-.599 2.278c.026.026.053.053.077.081.442-.016 4.081-4.429 4.154-5.08-.47.603-.908 1.179-1.361 1.74a55.518 55.518 0 01-1.403 1.671c-.478.541-.977 1.06-1.467 1.588zM8.084 9.096c.115-.155.226-.317.347-.467.532-.652 1.047-1.325 1.61-1.947.43-.477.932-.887 1.393-1.334.097-.094.16-.222.238-.331-1.516 1.189-3.5 3.444-3.588 4.079zm1.49-3.756a31.104 31.104 0 01-.055-.048L6.556 8.92c1.35-.947 2.016-2.413 3.019-3.58zm.11 3.868c.02.02.04.04.062.058.258-.259.484-.567.781-.765.695-.463 1.236-1.082 1.78-1.704.056-.065.079-.157.116-.237l-.066-.047c-.8.994-1.92 1.654-2.674 2.695zm3.452 3.081l.076.062c.193-.246.38-.499.578-.742.314-.385.44-.956 1.02-1.077.004 0 .003-.016.01-.045a5.22 5.22 0 00-.156-.11c.21-.376.41-.73.607-1.087l-.068-.043a1794.04 1794.04 0 00-2.067 3.042zM9.35 2.894L7.619 5.267l.078.063c.041-.042.085-.08.123-.125.243-.312.489-.619.721-.938.252-.348.495-.705.732-1.067.049-.074.049-.183.078-.306zm2.019 11.11c.022.018.042.037.065.055l.86-.197c-.21-.24-.053-.47.01-.735-.197.418-.542.674-.935.877z" fill="url(#j)" transform="translate(1 18.279)"/></g><g fill-rule="evenodd"><path d="M6.559.125C6.002.243 5.334.53 5.17.718a3.665 3.665 0 00-.279.443c-.101.179-.2.513-.182.447-.042-.06.063-.424.08-.508 0 0 .013-.052.027-.151.014-.1-.104-.018-.104-.018s-.55.315-.678.432c-.044.043-.084.176-.133.28l-.13.362s.001-.19.024-.322c.022-.142.034-.17.023-.203-.01-.033-.133.076-.195.128-.03.026-.253.211-.497.426-.249.22-.52.472-.63.615a2.368 2.368 0 00-.26.438l-.093.225-.036.405.012.568s-.077-.229-.115-.408c-.038-.18-.008-.261-.036-.31-.029-.05-.179.197-.303.325-.119.131-.31.371-.415.541 0 0-.205.312-.309.66-.103.346-.098.522-.133.729-.035.207-.016.402-.027.417-.046-.02-.129-.36-.141-.262-.012.098-.031.233-.031.233l-.026.22-.01-.224s.007-.166 0-.229c-.006-.062-.105.189-.105.189l-.084.259a2.11 2.11 0 00.034.658c.057.242.171.322.171.322l.243-.543c.022-.094 1.243-1.865 1.243-1.865l.347-.509s.463-.57.79-.914c.473-.504 2.514-1.97 2.514-1.97s.849-.543 1.298-.895c.449-.352.654-.225.813-.472-.11-.022-.227-.007-.421.062-.164.06-.345.163-.35.156-.008-.01.018-.071.058-.137.044-.066.062-.122.04-.122A.562.562 0 007 .323l-.132.132.035-.095c.018-.051.037-.129.122-.294.152-.165-.303.026-.466.059z" fill="url(#k)" transform="translate(13.3 25)"/><path d="M7.23.682s-.423.341-.507.416c-.217.184-.981.737-1.366 1.006-.663.466-.845.67-.845.67l-.859.78-.856.844-.835 1.142-.71 1.076-.421.846.173-.006a.632.632 0 00.239-.08 6 6 0 01.614-.236c.283-.094.913-.269 1.058-.457.144-.188-.313.006-.54.024-.185.015-.194.042-.326.042-.133 0-.24-.037-.205-.042.062-.01.26-.061.442-.113l.963-.433c.345-.184.528-.28.71-.425.205-.128-.122-.046-.365.02-.047.013-.297.092-.633.133a3.417 3.417 0 01-.761-.04l1.112-.206c.322-.061 1.05-.24 1.33-.39.079-.043.33-.183.458-.324 0 0 .92-.615.39-.551-.53.063-.6.016-.86.051a7.71 7.71 0 01-.842-.02l-.375-.047.493-.072.686-.048.347-.084c.194-.052.453-.087.55-.13.314-.132 1.008-.654 1.289-.92.24-.308.62-1.062.581-1.1-.013-.014-.163.005-.34.047a3.034 3.034 0 01-.438.066l-.801.07.731-.162c.473-.099.483-.086.81-.191.304-.149.526-.377.333-.348-.056-.018-.175.053-.336.089a3.73 3.73 0 01-.412.056l.356-.163c.062-.028.33-.103.46-.17.13-.067.312-.253.227-.273-.085-.02-.555.057-.568.047-.009-.014.152-.186.248-.306s.469-.621.347-.63c-.1.032-.433.279-.433.279L7.23.682z" fill="url(#l)" transform="translate(13.3 25)"/><path d="M6.682.911c-.124.094-.416.248-.615.38-.199.127-.649.45-.876.597a9.166 9.166 0 00-.396.266c-.011.008-.565.461-.997.851-.487.44-.947.9-.96.91a13.765 13.765 0 00-.644.786c-.19.271-.373.562-.426.622-.08.085-.495.748-.562.852-.061.104-.442.715-.6 1.045-.16.33-.242.611-.242.611l.308.11s.165-.478.257-.64c.117-.263.243-.52.374-.72.043-.067.198-.394.472-.754.078-.102.828-1.194 1.214-1.606a27.448 27.448 0 011.574-1.457 19.801 19.801 0 011.491-1.139c.36-.243.61-.463.738-.565.094-.092.837-.665.802-.702C7.56.32 6.801.822 6.682.91z" fill="url(#m)" transform="translate(13.3 25)"/><path d="M.263 8.202s-.177.05-.223.196C-.006 8.545 0 9 0 9s.668-.209.744-.414c.077-.205-.06-.258-.06-.258l.282-.419s-.429-.087-.454-.087c-.018 0-.176.312-.249.38z" fill="url(#n)" transform="translate(13.3 25)"/><path d="M13.644 32.926c-.049.27.007.375.431.614.425.238.454.169.502.015.047-.154.025-.35-.327-.558-.351-.209-.556-.342-.606-.07z" fill="#520000"/></g><path d="M19.718 13.897c-.098.003-.237.024-.29-.04a14.354 14.354 0 01-.863-1.143c-.377-.565-.723-1.157-1.09-1.73a.21.21 0 00-.154-.085c-.157-.003-.311.017-.46.029v2.494c.187.03.35.053.518.076.124.018.124.018.119.195h-2.003c-.036-.125-.008-.186.113-.195.167-.011.334-.046.544-.076V8.758c0-.173-.018-.348-.01-.52.01-.224-.101-.297-.26-.323-.1-.015-.203-.012-.299-.04-.05-.015-.086-.082-.16-.158.082-.026.104-.041.127-.041.734.006 1.467-.012 2.196.035.278.017.571.14.817.3.374.245.495.688.387 1.172-.114.507-.365.92-.719 1.24-.09.085-.076.144-.033.234l1.44 2.981c.005.012.096.26.08.26zm-2.853-3.257c.843.055 1.397-.586 1.384-1.495-.01-.86-.587-1.169-1.384-1.221v2.716zm4.29-2.017c-.126 1.064-.26 2.124-.38 3.188-.047.428-.055.862-.093 1.294-.015.18.04.25.19.26.073.002.15.034.222.034.12.003.157.064.12.207H19.76c-.022.087.094-.21.208-.227.129-.02.182-.085.205-.225.172-1.055.351-2.107.52-3.158.11-.68.208-1.361.322-2.093-.164-.04-.321-.09-.478-.116-.111-.02-.16-.067-.127-.201h1.736c.017.107.007.19-.117.195-.038.003-.073.017-.11.023-.17.024-.234.1-.175.315.336 1.27.662 2.547.991 3.82.008.026.025.047.056.1.106-.345.21-.662.303-.986.286-.988.564-1.981.855-2.966.058-.198-.002-.254-.157-.283-.096-.017-.25.02-.21-.215h1.612c.027.11.02.174-.107.198-.39.075-.397.084-.331.536.225 1.594.458 3.185.683 4.776.025.18.088.286.26.277.056-.003.112.029.167.032.12.006.152.073.117.198h-1.915c-.05-.134-.008-.186.116-.198.172-.015.344-.047.542-.073-.208-1.594-.41-3.165-.615-4.735l-.028-.006-1.495 5.024h-.053l-1.34-4.983a.067.067 0 00-.04-.012zm-6.07 9.269h1.99c.036.245-.136.184-.238.213-.12.032-.245.047-.422.079 0 .393-.002.79 0 1.183.01 1.326.023 2.655.028 3.98 0 .187.048.277.217.289.122.009.243.05.357.096.04.018.058.096.094.16H15.07c-.023-.105.015-.157.129-.174.134-.02.265-.062.394-.108.04-.015.096-.082.096-.126.005-.877.005-1.757.005-2.637-.81.059-1.634.117-2.46.175 0 .446-.003.863 0 1.28.002.352.02.705.022 1.06 0 .17.04.265.207.277.114.006.23.046.34.096.042.017.065.096.105.16h-2.04c-.034-.105.004-.154.12-.175.17-.032.337-.087.524-.137V18.19c-.225-.05-.427-.094-.632-.149-.015-.003-.015-.09-.023-.143h2.016c.005.131-.043.178-.16.201-.513.097-.45-.07-.462.6-.01.613-.003 1.225-.003 1.842h2.459c.005-.075.015-.13.015-.186-.007-.656-.025-1.312-.025-1.97 0-.18-.063-.242-.205-.25a1.004 1.004 0 01-.278-.047c-.066-.024-.12-.085-.177-.131.02-.027.033-.047.048-.065zM9.682 10.69c-.319 0-.622-.018-.926.002-.473.032-.943.096-1.413.137-.12.012-.16.055-.157.195.017.72.03 1.443.04 2.162.003.175.05.268.213.268.086 0 .172.035.26.038.114.003.16.056.147.184H5.84c-.03-.108 0-.17.119-.18.167-.018.334-.05.539-.082v-.851c-.005-1.451-.015-2.9-.015-4.35 0-.214-.084-.292-.25-.307-.094-.009-.19-.014-.28-.046-.055-.02-.1-.085-.148-.129.01-.02.02-.04.032-.06h2.006c.02.116-.005.18-.124.194-.561.067-.483.067-.498.65-.013.542-.02 1.081-.03 1.623-.003.07 0 .14 0 .24h.253c.675-.004 1.353-.012 2.028-.004.182.003.233-.07.228-.274a78.098 78.098 0 01-.028-1.882c0-.204-.07-.303-.245-.318a.836.836 0 01-.258-.043c-.058-.024-.107-.085-.157-.131l.03-.059h2.003c.036.123.006.175-.113.198-.494.088-.516.09-.524.662-.018 1.256-.01 2.509-.01 3.765 0 .294.018.591.02.886 0 .172.048.27.213.274.098 0 .197.035.298.04.119.006.154.064.119.196h-2c-.016-.126.02-.187.136-.199.154-.017.354-.005.445-.11.081-.09.043-.327.046-.496.01-.708.017-1.413.025-2.121-.008-.032-.015-.067-.018-.073zm17.936 13.261c-.048-.16-.023-.213.104-.23.17-.027.336-.088.526-.14v-5.382c-.23-.053-.438-.097-.64-.149-.015-.003-.013-.079-.025-.146h.28c.777-.006 1.551-.017 2.327-.008.294.002.592.02.876.102.918.265 1.548 1.031 1.586 2.238.03.95-.198 1.815-.754 2.517-.24.303-.552.551-.868.743-.485.295-1.024.37-1.576.376-.61.006-1.219.05-1.836.079zm1.404-5.7c-.008.061-.025.131-.025.201-.003 1.565.002 3.127-.006 4.692 0 .236.084.338.274.37.425.07.834.043 1.242-.152.485-.23.85-.594 1.1-1.119.296-.626.351-1.3.268-1.99-.096-.793-.427-1.434-1.07-1.757-.556-.274-1.156-.4-1.783-.245zM11.657 7.685c.478 0 .939.003 1.402 0 .4-.003.799-.026 1.201-.024.175.003.248-.064.25-.268.003-.157.016-.157.15-.169l-.114 1.743a.646.646 0 00-.043.026c-.028-.052-.076-.102-.083-.157a2.218 2.218 0 01-.003-.367c.01-.16-.06-.268-.18-.31-.377-.133-.766-.174-1.194-.168v2.395c.362-.026.74.03 1.108-.12.107-.043.13-.104.145-.212.01-.067.05-.128.078-.19l.068.03c-.045.504-.09 1.008-.144 1.576-.063-.073-.114-.105-.119-.146-.012-.075-.002-.157-.002-.236 0-.309-.005-.332-.269-.373-.288-.043-.581-.06-.862-.087v2.78c.493.046.933-.07 1.368-.222.04-.014.081-.084.094-.137.043-.186.068-.381.109-.568.012-.061.058-.113.09-.169a.53.53 0 01.059.03l-.197 1.975c-.084-.055-.084-.055-.15-.592H11.67c-.03-.148-.02-.221.119-.227.162-.009.321-.05.498-.076.013-.448.036-.888.036-1.325a466.451 466.451 0 00-.026-3.765c-.002-.327-.038-.368-.321-.414-.068-.012-.137-.018-.205-.032-.119-.032-.119-.032-.114-.201zm16.083 2.943v2.78c.487.04.923-.073 1.355-.219.046-.014.094-.09.106-.148.043-.187.069-.382.11-.569.012-.06.06-.11.093-.166l.053.03-.198 1.972c-.02.006-.038.012-.058.015-.02-.09-.045-.18-.058-.271-.015-.1-.015-.198-.025-.335h-2.755c-.04-.158-.012-.219.12-.228.161-.011.32-.05.508-.078V8.017c-.218-.058-.42-.114-.64-.172a6.437 6.437 0 00-.016-.19c.203.012.39.033.575.03.683-.006 1.363-.024 2.046-.024.177 0 .245-.072.248-.27 0-.068.05-.132.078-.199l.069.026-.114 1.755c-.016.008-.03.017-.048.023-.028-.055-.074-.105-.081-.163a1.986 1.986 0 01-.003-.347c.013-.204-.083-.32-.235-.35-.362-.072-.726-.125-1.13-.192v2.442c.358-.03.74.044 1.1-.131.058-.03.098-.117.136-.187.033-.06.05-.137.076-.204.025.006.05.015.073.02-.01.123-.017.246-.027.365-.03.344-.059.688-.091 1.032-.006.046-.04.09-.064.137-.025-.047-.06-.09-.073-.143-.013-.047-.005-.1-.003-.152.026-.314-.01-.373-.308-.422-.276-.047-.554-.053-.82-.073zm-4.371 9.508l-.142 1.553c-.015.006-.03.015-.045.02-.028-.04-.071-.075-.079-.119-.013-.06 0-.128 0-.195.003-.361.003-.367-.313-.42-.274-.046-.552-.081-.838-.122 0 .423-.002.801 0 1.183.005.47.023.938.02 1.408 0 .174.054.23.198.212.29-.035.587-.043.878-.096.29-.055.407-.134.442-.492a1.89 1.89 0 01.05-.318c.018-.061.072-.108.107-.16l.046.029-.198 1.967c-.19-.155-.078-.382-.16-.58-.9.009-1.813-.221-2.736 0-.035-.146-.035-.216.096-.236.17-.026.337-.087.554-.146 0-.416.003-.839 0-1.264-.01-1.306-.023-2.611-.028-3.92 0-.154-.038-.218-.174-.23-.15-.012-.299-.044-.458-.07l-.013-.2h2.808c.035-.164.06-.301.096-.435.003-.015.058-.012.109-.02l-.114 1.725c-.018.008-.033.014-.05.023-.028-.058-.084-.12-.076-.172.063-.449-.079-.685-.489-.72-.286-.023-.566-.105-.887-.169v2.465c.371-.037.756-.067 1.138-.119.043-.006.076-.137.111-.21.03-.067.053-.137.081-.204.015.015.04.023.066.032zm-15.501 3.71c-.189.821-.189.821-.34.862.053-.903.102-1.803.154-2.707l.05-.032c.038.05.101.096.112.152.024.128.024.26.035.387.045.627.465 1.006 1.155 1.2.245.07.97-.15 1.166-.498.308-.544.168-1.17-.375-1.567a102.13 102.13 0 00-1.215-.88c-.76-.542-1.019-1.556-.55-2.282.228-.353.585-.568 1.082-.661.473-.088.904.029 1.348.07.05.005.098.014.14.023.19-.21.018-.536.28-.702a.472.472 0 01.08.029l-.21 2.278a.551.551 0 00-.059.03c-.038-.073-.105-.143-.112-.216-.024-.28-.003-.557-.2-.813-.304-.396-.987-.577-1.473-.338-.427.207-.655.726-.322 1.13.227.28.563.505.882.723.42.289.865.554 1.176.939.525.65.578 1.8-.133 2.488-.465.452-1.106.612-1.817.536-.276-.035-.556-.099-.854-.151zm25.52-16.185c.07-.215.135-.434.211-.652.004-.012.077-.006.125-.009l-.215 2.366c-.08-.105-.149-.157-.162-.218-.025-.114-.014-.23-.018-.344-.014-.449-.322-.752-.776-.898-.737-.233-1.392.248-1.316.892.031.274.215.484.447.656.343.25.7.49 1.067.716 1.188.74 1.337 2.081.62 2.979-.336.422-.863.646-1.486.626-.416-.012-.832-.061-1.265-.096-.163.224.021.597-.284.819l-.073-.018c.042-.443.1-.886.122-1.331.02-.44.003-.88.003-1.318.035-.011.066-.023.1-.035.039.056.108.108.115.164.035.32.024.644.235.938.298.417.825.7 1.383.565.447-.105.765-.396.849-.798.107-.528-.122-.956-.59-1.303-.422-.315-.866-.612-1.267-.941-.738-.609-.905-1.818-.063-2.509.281-.23.648-.347 1.05-.326.391.017.783.05 1.188.075zm-8.375 10.596c-.228-.126-.499-.015-.668-.222.008-.026.013-.052.02-.078h2.107c.02.14-.028.189-.149.198-.185.014-.37.052-.577.084v5.394c.357.006.68-.044 1.007-.146.44-.134.536-.515.592-.95.01-.07.02-.145.048-.207a.165.165 0 01.144-.096c-.104.912-.207 1.824-.314 2.751-.098.044-.129-.012-.126-.134.005-.274 0-.548 0-.845-.893-.044-1.796-.195-2.724-.012l-.015-.186.652-.166c.003-1.795.003-3.59.003-5.385zm-7.227 5.519c.073-.076.111-.149.162-.166.17-.059.347-.096.541-.149v-5.39c-.222-.05-.427-.094-.63-.15-.017-.005-.017-.09-.025-.145h2.046l-.03.178-.63.107v5.406c.195.05.372.084.542.14.053.017.093.09.164.166-.723.003-1.391.003-2.14.003z" fill="#A60101" fill-rule="evenodd"/><path d="M18.3 25h20v15h-20V25z" fill="none"/><path d="M6.247 2.883c-.068.137-.027.298-.027.298l3.5 1.78s.143-.01.224-.184a.326.326 0 00-.025-.317L6.494 2.728s-.178.018-.247.155zm-.877.496c-.153.04-.405.392-.549.675-.144.282-.33.913-.302 1.062.028.15.475.362.475.362l.925-1.96s-.396-.179-.549-.139zm3.259 4.027l9.69 4.933s1.301.438 1.62-.52c.319-.96-.712-1.395-.712-1.395L9.552 5.507l-.923 1.9zm-3.96-1.192c-.051.125.025.326.025.326L8.11 8.26s.157-.07.196-.193c.039-.121-.04-.294-.04-.294L4.89 6.04s-.172.049-.223.174zm-3.84 7.125s-.718 1.098-.8 1.263c-.083.164.038.398.038.398h10.07s.295-.166.05-.513a32.739 32.739 0 01-.747-1.166l-8.61.018z" fill="url(#o)" fill-rule="evenodd" transform="translate(18.3 25)"/><path d="M22.642 31.359c-.338-.003-1.369 2.217-1.288 2.538.08.32 3.804 2.148 4.093 2.111.29-.036 1.48-2.222 1.31-2.527-.172-.304-.416-.34-2.071-1.213-1.656-.873-1.707-.907-2.044-.91zm3.239-6.352c-.439.132-1.36 2.214-1.288 2.538.073.324.18.307 1.802 1.111 1.623.805 1.992 1.092 2.296.988.304-.104 1.404-2.076 1.305-2.514-.1-.439-3.677-2.255-4.115-2.123z" fill="#552B00" fill-rule="evenodd"/><path d="M23.74 29.478c-.36.745-.646 1.366-.654 1.446-.007.08.067.127.067.127l1.632.837c.93.483 1.769.942 1.769.942s.068.041.237-.036c.168-.078 1.312-2.708 1.302-2.774-.01-.067-.059-.094-.059-.094l-1.719-.886c-.981-.504-1.794-.892-1.794-.892s-.077-.032-.14.022c-.064.053-.642 1.308-.642 1.308z" fill="#FBB502"/><path d="M18.57 37.899c-.11.18-.073.515.545.54.637.028 1.852.02 4.49.044 2.463.022 3.536.017 4.186-.009.736-.029.81-.183.773-.477-.036-.295-.063-.41-5.025-.488-4.963-.076-4.86.21-4.97.39z" fill="#412101" fill-rule="evenodd"/></g></svg>