<svg width="16" height="16" fill="none" xmlns="http://www.w3.org/2000/svg"><path d="M7.994 13H2.745a1.814 1.814 0 01-1.114-.384A1.63 1.63 0 011 11.318v-6.65a1.598 1.598 0 01.39-1.05 1.778 1.778 0 011.34-.616C6.24 3 9.75 3 13.26 3c.396.004.78.134 1.087.37a1.636 1.636 0 01.65 1.338C15 6.902 15 9.097 15 11.292c0 .467-.158.874-.505 1.211a1.728 1.728 0 01-1.045.486 2.058 2.058 0 01-.218.011H7.994zM6.295 7.991l-3.786 4.12v.018c.089.017.18.029.27.035.44.004.88 0 1.321 0h9.104a.809.809 0 00.289-.051 7672.058 7672.058 0 01-3.787-4.122l-.044.034-1.37 1.119a.448.448 0 01-.581.003L6.673 8.3l-.378-.31zM2.599 3.859v.014l5.402 4.41 5.401-4.41-.002-.015a1.627 1.627 0 00-.193-.022H2.782a1.456 1.456 0 00-.183.024zm-.696 7.624h.016c1.235-1.342 2.472-2.688 3.709-4.036L1.93 4.43a.696.696 0 00-.053.259V11.3c.004.062.013.123.026.183zm8.468-4.035l3.71 4.038h.016c.012-.066.02-.134.024-.2V4.717a.442.442 0 00-.002-.082c-.012-.067-.027-.132-.044-.209l-3.704 3.021z" fill="#000"/></svg>