<svg width="18" height="15" fill="none" xmlns="http://www.w3.org/2000/svg"><g clip-path="url(#clip0_29_7)"><path d="M7.31.683l-.014 1.54.02 1.493s.034.174.1.317c.066.143.165.255.165.255V9.14s-.167-.003-.2.14c-.034.143.003.318 0 .561 0 0-.028.614-.085.724-.118.377-.282.68-.505.935-.566.653-1.639 1.03-2.829 1.107-.155-.004-.327-.13-.458.023s0 .369 0 .369h8.94s.12-.247 0-.37c-.121-.122-.25-.014-.417-.022a5.11 5.11 0 01-1.824-.41c-.163-.073-.4-.21-.527-.306-.514-.395-.812-.68-.969-1.33-.033-.23-.072-.794-.072-.794-.003-.18.047-.335 0-.487-.047-.152-.187-.122-.187-.122V4.291s.131-.238.188-.374c.058-.137.041-.26.041-.26l.007-1.448s.02-.855.003-1.454C8.681.633 8.596-.002 7.973 0c-.622.002-.662.683-.662.683z" fill="url(#paint0_linear_29_7)"/><path d="M10.331 7.737l.213.237c.396.443.96.79 1.562.967.14.04.445.093.674.115l.423.044.396-.044a3.347 3.347 0 002.217-1.086c.108-.122.193-.233.183-.24-.02-.022-5.668.007-5.668.007zM0 9.717s.439.569.72.764c.315.218.711.392 1.13.491l.295.074.458.022.459.023.373-.063c.622-.104 1.107-.307 1.552-.646.233-.174.662-.625.632-.662C5.603 9.706 0 9.717 0 9.717z" fill="url(#paint1_linear_29_7)"/><path d="M12.973 2.904l-2.347 4.833h.367l1.99-4.284.01 2.135.008 2.14h.326l.007-2.04-.023-2.227 1.996 4.265h.38c0-.012-.333-.716-.333-.716-.183-.373-2.024-4.088-2.024-4.088l-.357-.018zM.25 9.72l.363.001 1.959-4.166.013 4.164.347-.001s.003-4.183.016-4.164A843.54 843.54 0 014.934 9.72s.298.003.367.001c0-.01-2.37-4.936-2.37-4.958h-.37L.249 9.72z" fill="#AA9B6B"/><path d="M13.208 1.464c-.543.052-.624.578-.624.578l-.377-.03a8.817 8.817 0 01-.828-.15c-.943-.219-1.853-.348-2.44-.348h-.26l.003.573.47.003.491.004.498.081c.275.045.753.14 1.064.21l.567.134.439.018.435.022s.085.4.557.42c.482-.053.708-.295.714-.804-.046-.438-.22-.666-.709-.71zm-6.233.342a6.44 6.44 0 00-.557.258c-.337.196-.73.503-1.192.939-.236.221-.54.476-.674.565-.253.17-.623.32-.888.365l-.228.016s0-.676-.65-.697c-.503.017-.721.453-.711.818.058.662.49.74.71.764.44-.03.552-.32.552-.32l.255-.027c.714-.074 1.222-.35 1.958-1.07.393-.381.816-.71 1.137-.88.278-.148.615-.26.615-.26L7.3 1.676s-.135.052-.325.13z" fill="#A39B9B"/><g clip-path="url(#clip1_29_7)"><path d="M11.124 9.345c-.035.064-.014.14-.014.14l1.75.83s.072-.005.112-.086c.04-.08-.013-.148-.013-.148l-1.712-.808s-.09.009-.123.072zm-.439.232c-.077.019-.203.183-.274.315-.072.131-.166.426-.152.495.014.07.238.17.238.17l.463-.915s-.198-.084-.275-.065zm1.63 1.88l4.845 2.301s.65.205.81-.243c.159-.447-.357-.65-.357-.65l-4.837-2.295-.462.886zm-1.98-.557c-.026.058.012.152.012.152l1.708.803s.079-.033.098-.09c.02-.057-.02-.138-.02-.138l-1.688-.808s-.085.022-.11.08zm-1.92 3.325s-.36.513-.4.59c-.042.076.018.185.018.185h5.036s.147-.078.025-.24a15.168 15.168 0 01-.374-.543l-4.305.008z" fill="url(#paint2_linear_29_7)"/><path d="M10.17 10.967c-.168 0-.683 1.035-.643 1.185.04.15 1.902 1.002 2.047.985.145-.017.74-1.037.654-1.179-.085-.142-.207-.159-1.035-.566-.828-.408-.853-.424-1.022-.425zm1.62-2.964c-.219.062-.68 1.033-.643 1.185.036.15.09.143.9.518.812.376.997.51 1.149.461.152-.048.702-.969.652-1.173-.05-.205-1.838-1.052-2.057-.99z" fill="#552B00"/><path d="M10.72 10.09c-.18.348-.323.637-.327.675-.004.037.033.059.033.059l.816.39c.465.226.885.44.885.44s.034.02.118-.017c.085-.036.657-1.263.652-1.295-.006-.03-.03-.043-.03-.043l-.86-.414c-.49-.235-.896-.416-.896-.416s-.04-.015-.07.01c-.033.025-.322.61-.322.61z" fill="#FBB502"/><path fill-rule="evenodd" clip-rule="evenodd" d="M8.135 14.003c-.055.077-.036.22.273.23.318.012.926.01 2.245.02a61.66 61.66 0 002.092-.005c.369-.012.405-.078.387-.203-.018-.126-.031-.175-2.513-.208-2.481-.033-2.429.09-2.484.166z" fill="#412101"/></g></g><defs><linearGradient id="paint0_linear_29_7" x1="7.761" y1="11.135" x2="8.011" y2="1.756" gradientUnits="userSpaceOnUse"><stop stop-color="#2E2E2E"/><stop offset="1" stop-color="#8E8E8E"/></linearGradient><linearGradient id="paint1_linear_29_7" x1="7.22" y1="7.719" x2="8.189" y2="11.901" gradientUnits="userSpaceOnUse"><stop offset=".01" stop-color="#FFC700"/><stop offset="1" stop-color="#E77300"/></linearGradient><linearGradient id="paint2_linear_29_7" x1="10.118" y1="10.167" x2="13.243" y2="16.799" gradientUnits="userSpaceOnUse"><stop offset=".135" stop-color="#B36E07"/><stop offset=".693" stop-color="#542D05"/></linearGradient><clipPath id="clip0_29_7"><path fill="#fff" d="M0 0h18v15H0z"/></clipPath><clipPath id="clip1_29_7"><path fill="#fff" transform="translate(8 8)" d="M0 0h10v7H0z"/></clipPath></defs></svg>