<svg width="88" height="102" fill="none" xmlns="http://www.w3.org/2000/svg"><g clip-path="url(#clip0_1_11)"><path fill-rule="evenodd" clip-rule="evenodd" d="M2.026 17.597C16.344 16.662 31.327 12.71 43.557 1.5c12.09 11.16 25.386 16.044 41.776 16.384.11 1.32-.026 14.66-.836 20.73-1.52 11.42-5.147 21.73-10.807 31.79-7.37 13.1-26.13 30.381-30.129 30.381-3.999 0-22.063-15.959-30.207-29.769-6.756-14.022-8.09-16.11-10.05-25.47-1.74-8.34-2.182-26.933-1.278-27.95z" fill="url(#paint0_radial_1_11)"/><path fill-rule="evenodd" clip-rule="evenodd" d="M.487 16.05c16.23-.32 30.84-4.84 43.07-16.05 12.09 11.16 26.72 15.71 43.11 16.05.11 1.32.25 2.64.32 3.96.34 6.12.02 12.2-.79 18.27-1.52 11.42-4.92 22.23-10.58 32.29-7.37 13.1-28.057 31.215-32.056 31.215-3.999 0-23.964-17.445-31.314-29.935-4.86-8.25-8.15-17.11-10.11-26.47C.397 37.04-.353 28.62.157 20.1c.04-.67.24-3.29.33-4.05zm2.83 2.97c-.05.33-.12.57-.12.81.12 4.86.11 9.72.42 14.57.4 6.2 1.75 12.25 3.57 18.19 5.95 19.41 17.62 34.39 34.86 45.07 1.08.67 1.85.76 3 .04 17.49-10.84 29.21-26.09 35.12-45.79 1.82-6.05 3.08-12.23 3.45-18.54.25-4.32.26-8.66.35-12.99.01-.44-.1-.89-.16-1.38-7.38-.31-14.5-1.58-21.38-4.07-6.89-2.49-13.21-6-18.83-10.8-11.71 9.7-25.3 14.18-40.28 14.89z" fill="#000"/><path d="M43.42 21.994L10.014 43.97S6.04 47.575 7.628 50.1c1.587 2.527 4.947-.194 4.947-.194l32.711-24.8s1.2-.284.156-1.954c-1.045-1.67-2.021-1.16-2.021-1.16z" fill="url(#paint1_linear_1_11)"/><path d="M41.332 18.898c-.223-.28-.784-.435-.784-.435l-8.321 3.848s8.008 9.437 8.239 9.69c.424.446.846.617 1.498.961 2.365 1.249 2.234 1.053 3.555.497 1.29-.543 1.311-.422 1.293-2.906-.005-.704-.012-1.452-.237-1.896-.182-.413-5.243-9.76-5.243-9.76z" fill="url(#paint2_linear_1_11)"/><path d="M43.47 18.868c.516-.745-2.998-5.654-3.913-5.985-.464-.167-11.243 5.37-11.414 5.715-.347.7 2.842 5.909 3.854 6.013 1.012.104 1.468-.38 6.132-2.66 4.665-2.28 4.825-2.339 5.341-3.083z" fill="#040404"/><path fill-rule="evenodd" clip-rule="evenodd" d="M69.037 45.195l.073 20.211-.364 2.327-7.792 4.659-12.32-17.853 8.305-4.736 1.879.297 10.219-4.905z" fill="#73543E"/><path d="M59.644 70.66s-3.755 1.135-4.208 1.28c-2.943.936-6.19 1.164-9.155 2.079-1.126-1.39-2.188-2.714-3.26-4.031-.986-1.204-1.983-2.398-2.975-3.602-1.256-1.53-2.511-3.065-3.762-4.6-1.59-1.948-3.169-3.907-4.758-5.86-1.412-1.736-2.819-3.473-4.23-5.21-.287-.35-.648-.588-1.106-.77-1.611-.635-3.46-.793-4.997-1.574-1.088-.553-2.042-1.45-3.04-2.147-.177-.125-2.954-2.45-3.945-3.35-1.144-1.566-2.777-3.846-3.682-5.358-.318-.3 7.43-8.142 7.743-8.426.878-.796 3.584-2.642 4.646-2.074 2.447 1.303 5.004 3.841 6.922 5.738 1.3 1.282 2.13 2.83 2.939 4.443.092.186.167.419.15.62-.102 1.225-.247 2.445-.35 3.67-.064.79-.08 1.586-.102 2.382-.005.108.081.232.156.33 1.838 2.341 3.67 4.682 5.519 7.018 2.188 2.77 5.405 5.525 7.593 8.294.377.476 4.429-3.017 4.429-2.981l9.473 14.13z" fill="url(#paint3_linear_1_11)"/><path fill-rule="evenodd" clip-rule="evenodd" d="M69.945 68.52c-1.192.278-7.244 4.08-8.364 4.537-2.34.016-2.506-1.199-3.05-.992-.738.274-8.25 2.75-11.285 3.68-.496.155-1.04.19-1.563.253-1.008.108-4.182-3.845-5.314-5.137-1.374-1.576-13.052-16.506-13.942-17.514-.776-.873-1.756-1.405-2.926-1.736-1.66-.47-3.19-1.24-4.484-2.387-.878-.78-4.92-4.941-5.847-6.398-.96-1.504-1.919-3.008-2.873-4.517-.5-.796-.326-1.26.205-2.269.423-.9 1.978-3.026 4.473-5.39 2.178-2.062 5.202-4.306 5.902-4.547 2.185-.644 5.47 1.932 5.841 2.253.272.231 2.146 1.439 3.992 3.225 1.784 1.725 3.542 4.03 3.801 4.294.83 1.423.146 4.594-.13 5.865-.182.869.243 1.401.728 1.995a4429.944 4429.944 0 0111.41 14.201c.743-.589 1.438-1.147 2.155-1.71-.285-.414-1.652-1.931-.29-3.189 2.608-1.504 5.221-2.992 7.813-4.521 1.621-.764 2.48.718 2.98.423 3.008-1.762 10.062-6.439 10.763-6.49.005 8.697.129 24.888.005 26.071zM50.156 58.024c-1.24 1.029-2.441 2.005-3.605 3.013-.329.284-.518.284-.755-.052-.35-.496-.684-.997-1.061-1.472-2.194-2.77-4.393-5.525-6.586-8.295-1.849-2.336-3.68-4.677-5.519-7.018-.075-.093-.156-.222-.156-.33.022-.796.038-1.592.103-2.383.102-1.224.247-2.444.35-3.669.016-.201-.054-.434-.151-.62a16.361 16.361 0 00-3.174-4.346c-1.919-1.897-3.87-3.757-6.317-5.06-1.061-.563-1.546-.521-2.425.27-.312.284-.355.526-.032.826 1.164 1.085 2.307 2.196 3.487 3.266.991.9 2.226 1.613 2.398 3.09.06.486.108.972.237 1.442.092.342-.032.538-.258.77-1.213 1.23-2.442 2.445-3.611 3.716-1.256 1.364-2.652 2.543-4.306 3.447-.313.17-.577.434-.879.667.2.248.307.46.48.584.997.702 1.956 1.493 3.04 2.04 1.535.781 3.163 1.401 4.774 2.037.453.18.814.413 1.105.77 1.412 1.731 2.819 3.473 4.23 5.21 1.585 1.953 3.17 3.906 4.76 5.86a1639.34 1639.34 0 003.761 4.599c.986 1.204 1.989 2.392 2.975 3.602 1.072 1.312 2.134 2.635 3.26 4.03 2.97-.914 5.923-1.808 8.866-2.744 1.029-.325 2.058-.692 2.92-1.359-2.646-3.974-5.26-7.901-7.91-11.89zm18.124 8.729c-3.73-5.4-7.448-10.775-11.215-16.227l-6.904 4.537c3.735 5.509 7.448 10.971 11.162 16.45 2.333-1.603 4.602-3.153 6.957-4.76zm.151-3.85v-15.55c-2.786 1.245-5.535 2.475-8.337 3.726l8.337 11.824zm-52.308-30.66c-.523-.016-.673.226-.598.624.048.259.135.528.275.75.938 1.519 2.183 2.806 3.59 3.917.872.687 1.907 1.199 2.91 1.72.236.125.651-.015.964-.103.043-.015.01-.439-.065-.65-.399-1.065-1.245-1.825-1.978-2.672-1.045-1.21-2.3-2.145-3.68-2.94-.448-.26-.944-.435-1.418-.647zm2.64-2.28c-.764-.015-.97.202-.764.724.183.46.388.966.733 1.307a101.908 101.908 0 004.349 4.052c.474.413 1.126.666 1.735.883.27.093.652-.062.965-.155.064-.02.118-.279.075-.387-.14-.347-.275-.714-.506-1.003-.599-.739-1.245-1.442-1.876-2.16-.905-1.028-1.989-1.866-3.169-2.568-.528-.31-1.137-.512-1.541-.693zm-4.898 4.29c-.523.134-.733.35-.609.671.404 1.075 1.121 1.959 1.951 2.75.7.671 1.45 1.291 2.172 1.943a8.575 8.575 0 002.905 1.726c.145.051.399-.037.523-.14.091-.078.123-.336.053-.44-.415-.655-.776-1.369-1.32-1.911a74.831 74.831 0 00-4.047-3.706c-.458-.392-1.078-.604-1.628-.894zm3.789 9.27c.41-.165.986.005.803-.604a3.979 3.979 0 00-.836-1.504c-.803-.873-1.638-1.742-2.586-2.465-.836-.636-1.827-1.1-2.781-1.582-.237-.118-.604-.005-.911 0 .022.27.016.548.075.812.044.186.157.367.264.532 1.003 1.545 2.453 2.687 3.94 3.762.604.44 1.347.703 2.032 1.05z" fill="#000"/></g><defs><linearGradient id="paint1_linear_1_11" x1="46.582" y1="28.553" x2="23.755" y2="38.405" gradientUnits="userSpaceOnUse"><stop offset=".135" stop-color="#6E4302"/><stop offset=".693" stop-color="#542D05"/></linearGradient><linearGradient id="paint2_linear_1_11" x1="50.205" y1="22.624" x2="30.622" y2="16.351" gradientUnits="userSpaceOnUse"><stop offset=".13" stop-color="#363636"/><stop offset=".654" stop-color="#040404"/></linearGradient><linearGradient id="paint3_linear_1_11" x1="23.5" y1="41" x2="49" y2="76.5" gradientUnits="userSpaceOnUse"><stop stop-color="#ECCBA5"/><stop offset=".911" stop-color="#FFE4BB"/></linearGradient><radialGradient id="paint0_radial_1_11" cx="0" cy="0" r="1" gradientUnits="userSpaceOnUse" gradientTransform="matrix(.46758 54.785 -41 .34993 43 46)"><stop stop-color="#9BABBA"/><stop offset=".521" stop-color="#CACACA"/><stop offset="1" stop-color="#DEE9FF"/></radialGradient><clipPath id="clip0_1_11"><path fill="#fff" d="M0 0h87.121v101.785H0z"/></clipPath></defs></svg>